<svg xmlns="http://www.w3.org/2000/svg" viewBox="0 0 418.82 196.07">
    <defs>
        <style>.cls-1{fill:#fff;}</style>
    </defs>
    <title>Asset 4</title>
    <g id="Layer_2" data-name="Layer 2">
        <g id="Layer_1-2" data-name="Layer 1">
            <path class="cls-1"
                  d="M145,149.8q2.21-.86,2,.67-.29,2.3-3.36,5.47a5.69,5.69,0,0,1-1.82,1.34,86.16,86.16,0,0,1-19,5.76,100.73,100.73,0,0,1-19.63,1.68,130.86,130.86,0,0,1-19.87-1.87,155.47,155.47,0,0,1-19.63-4.61,193.36,193.36,0,0,1-18.91-6.91q-14.31,10.46-30.53,1.25a39,39,0,0,1-5.62-4.13,35.57,35.57,0,0,1-5.09-5.57,18,18,0,0,1-3.17-6.58,14.27,14.27,0,0,1,.14-7.06A9.25,9.25,0,0,1,5,123a9.48,9.48,0,0,1,7.73-1,17.34,17.34,0,0,1,4.85,2.4q2.74,1.83,5.76,4.13a44.7,44.7,0,0,0,4.56,3.17,204.39,204.39,0,0,0,19,9.79.58.58,0,0,0,.24.14.75.75,0,0,0,.24,0,48.45,48.45,0,0,0,3.94-5.38q4.9-8,9.46-17.23t8-17.38q3.41-8.11,7.06-19.3t5.86-18.58Q83.85,56.39,87,43.91t4.61-18.67Q93.06,19,96,6.08q.48-2.11,4.27-4.61t4-.77a2.87,2.87,0,0,1-.1.67Q97.67,29.41,88,60.8q-.58,1.92-3.07,10.37T80.68,85.28q-1.73,5.67-5.09,15t-6.48,16.27q-3.12,6.91-7.49,14.5a85.49,85.49,0,0,1-8.88,12.86,184.9,184.9,0,0,0,25.44,8.35Q117.06,161.8,145,149.8ZM19.14,143.46q11.14,7.78,19.2,5-6.24-2.88-11.71-5.86-6.53-3.46-12.77-7.49-.67-.38-1.87-1.2l-1.49-1A25.69,25.69,0,0,0,19.14,143.46Z"/>
            <path class="cls-1"
                  d="M144.42,118.31q.86,1-.1,2.59a11.54,11.54,0,0,1-2.11,2.69l-.38.38q-18.91,17.09-22.18,5.28a27.8,27.8,0,0,1-1.06-6q-1.35,2.11-2.78,4a46.58,46.58,0,0,1-7.1,7.1q-3.94,3.17-7.58,3.07-2.69-.1-5.23-2.93a25,25,0,0,1-4.08-6.1A17.37,17.37,0,0,1,90.23,118a30.73,30.73,0,0,1,3.36-10.22A39.07,39.07,0,0,1,100.07,99q6.34-6.43,11-5.76,4.32.67,9.12,8.06.77-2.59,1.25-5,.19-1.15,2.5,1.44,3.07,3.55,2.69,5.66a.39.39,0,0,0-.1.29v.1q.09,9,.58,14.88,0,.19.1,1.15c.06.64.11,1.1.14,1.39s.1.72.19,1.3a5.66,5.66,0,0,0,.38,1.39,5.93,5.93,0,0,0,.62,1.06,2.93,2.93,0,0,0,.86.82,6.93,6.93,0,0,0,1.39.38,2.57,2.57,0,0,0,1.54-.38q.91-.48,1.54-.86a13.46,13.46,0,0,0,1.54-1.15q.91-.77,1.44-1.25l1.25-1.15,1-1Q143,116.87,144.42,118.31Zm-42.72,9.31q11.23-5.85,17.18-22.27a8.49,8.49,0,0,1-.67-1,5.52,5.52,0,0,0-3.46-2.74,6.2,6.2,0,0,0-3.94.43,16.74,16.74,0,0,0-4,2.64,30,30,0,0,0-3.5,3.5,40.53,40.53,0,0,0-2.59,3.46,33.5,33.5,0,0,0-4.61,10.37q-1.92,7.11,2.11,6.72A9,9,0,0,0,101.7,127.62Z"/>
            <path class="cls-1"
                  d="M217.67,109.76q.38-.29,0,.86-1.54,5.09-6.62,12.67-8.83,13.15-15.26,10.66a8.27,8.27,0,0,1-2.59-1.92q-4.42-4.7-4.51-18a153.83,153.83,0,0,1-21.22,22.08q-1,.77-2.21-.82a13,13,0,0,1-2-3.74,6.23,6.23,0,0,1-.58-2.93,66.75,66.75,0,0,0,1.63-21.7q-2.4,3.07-6.72,9t-6.43,8.64q-.29.39-1.49,2.11t-2.06,2.88a14.07,14.07,0,0,1-2.16,2.26,4.46,4.46,0,0,1-2.45,1.2q-1.15.19-2.4-1.78a19.55,19.55,0,0,1-1.82-3.5,21.34,21.34,0,0,1-.86-5.62,33.16,33.16,0,0,1,.48-6.53q.58-3.41,1.3-6.34t1.63-6.53q.91-3.6,1.39-5.62.19-1.15,2.4,1.44,3.07,3.65,2.69,5.66-.29,1.34-2,7.73T143.56,122a75,75,0,0,0,5-7.2q3.12-4.9,3.41-5.38,7.78-10.46,10.85-14,.77-1.06,2.54,1.49a14.81,14.81,0,0,1,2.06,3.6,69.27,69.27,0,0,1,2.3,21.7,264.83,264.83,0,0,0,19-21.6q1.54-1.92,4,3.07a9.52,9.52,0,0,1,1.15,3.46,6.44,6.44,0,0,1,.1,1.34q.19,3.17.43,5.38t.72,5.76a20.65,20.65,0,0,0,1.44,5.66q1,2.11,2.21,2.3a4,4,0,0,0,2.88-1.15,27.9,27.9,0,0,0,3.74-3.65q2-2.3,4.08-4.75t4.27-4.8A22.21,22.21,0,0,1,217.67,109.76Z"/>
            <path class="cls-1"
                  d="M258.09,112.64q.77-.67,2.35,1.06a10.37,10.37,0,0,1,2.26,3.74,3.34,3.34,0,0,1-.1,3.07l-5.18,4.13-6.91,5.52q-3.17,2.54-6,5-1.44,11.33-3,20-.19,1.15-.77,5.14t-1.11,7.1q-.53,3.12-1.49,7.63a54,54,0,0,1-2.26,7.92,58.19,58.19,0,0,1-3,6.58,13.48,13.48,0,0,1-4.08,4.85,8.87,8.87,0,0,1-5.18,1.68,10.74,10.74,0,0,1-7.49-3.26,22.47,22.47,0,0,1-5.28-7.49,25.18,25.18,0,0,1-2.11-8.06,32.57,32.57,0,0,1,1.87-13.2,49.67,49.67,0,0,1,7.1-13.2,121.69,121.69,0,0,1,9.84-11.76q5.09-5.33,11.71-11.09a6.1,6.1,0,0,1,0-.62c0-.29,0-.5,0-.62q.29-1.82.63-5.28t.43-3.84a44,44,0,0,1-6,8.54,19,19,0,0,1-7.34,5,11.29,11.29,0,0,1-7.87,0,10.6,10.6,0,0,1-6-6,16.26,16.26,0,0,1-1.49-6.72,31.2,31.2,0,0,1,.86-8.3,50.28,50.28,0,0,1,2.69-8.21,25.23,25.23,0,0,1,4.32-6.91,15,15,0,0,1,5.52-4.13,5.32,5.32,0,0,1,3.89-.24,12,12,0,0,1,3.31,1.68A11.36,11.36,0,0,1,235,95.46a29.27,29.27,0,0,1,2.11,3.84q.81,1.83,1.58,3.94a116.75,116.75,0,0,0,4.42-14.4q.38-1.53,3,1.92,2.4,3.17,2.3,4.61-.86,13.44-2.4,27,1.92-1.63,4.18-3.41t4.42-3.5Zm-31.2,69.89a59.8,59.8,0,0,0,7.06-17.76,209.49,209.49,0,0,0,3.89-23.52Q215.94,161.7,214.21,179q-.48,4.8,1.68,7.15a4.8,4.8,0,0,0,5.42,1.3A10.39,10.39,0,0,0,226.89,182.53Zm2.59-63.94a44.37,44.37,0,0,0,7.58-11.52,10,10,0,0,1-2.3-3.55q-2.4-8.93-9.12-.67a39.56,39.56,0,0,0-6.53,11,.39.39,0,0,1-.1.29q-2.11,6.34-.82,8.4t4.56.86A18.4,18.4,0,0,0,229.48,118.6Z"/>
            <path class="cls-1"
                  d="M296.49,125.31q1.15-1,3.36,2.3,2.5,3.74,1.34,5.28l-.19.19q-5.76,4.71-10.46,5.76a7.42,7.42,0,0,1-7.68-2.26q-3-3.31-3-11.09,0-.48.38-3.12t.58-4.46a8.16,8.16,0,0,0-.1-2.88,2.94,2.94,0,0,1-.38-1.06,3.49,3.49,0,0,1-1.54.77,6.68,6.68,0,0,0-2.74,2,24,24,0,0,0-2.45,3.12q-1,1.49-2.35,3.89l-1.68,2.88a129.82,129.82,0,0,0-9.89,16.42l-.77,4.61q-.48,2.78-3.46-1.54a9.5,9.5,0,0,1-1.82-3.55,3.22,3.22,0,0,1-.1-.77v-.1a16.18,16.18,0,0,1,.67-3.84l15.17-91.2q.38-2.11,2.78.58,2.59,3,2.69,5.09a.28.28,0,0,1-.1.19l-10.94,65.57a58.47,58.47,0,0,1,7.73-9.5q3.79-3.65,6.48-3.55a5.48,5.48,0,0,1,3.55,1.25,8.91,8.91,0,0,1,2.45,3.22,26,26,0,0,1,1.44,3.84,22.41,22.41,0,0,1,.72,3.7,17.12,17.12,0,0,1-.24,3.41q-.34,2.45-.72,4.7a19.77,19.77,0,0,0-.29,4.27q.1,2,.86,2.5a6.15,6.15,0,0,1,.77,0,2.08,2.08,0,0,0,1.1-.34q.72-.38,1.3-.72t1.44-.91q.86-.58,1.49-1.06l1.44-1.1q.81-.62,1.3-1.06c.32-.29.67-.59,1.06-.91A5.66,5.66,0,0,1,296.49,125.31Z"/>
            <path class="cls-1"
                  d="M350.72,118.31q.86,1-.1,2.59a11.51,11.51,0,0,1-2.11,2.69l-.38.38q-18.91,17.09-22.18,5.28a27.77,27.77,0,0,1-1.06-6q-1.35,2.11-2.78,4a46.58,46.58,0,0,1-7.1,7.1q-3.94,3.17-7.58,3.07-2.69-.1-5.23-2.93a25,25,0,0,1-4.08-6.1A17.37,17.37,0,0,1,296.53,118a30.74,30.74,0,0,1,3.36-10.22A39.09,39.09,0,0,1,306.37,99q6.34-6.43,11-5.76,4.32.67,9.12,8.06.77-2.59,1.25-5,.19-1.15,2.5,1.44,3.07,3.55,2.69,5.66a.39.39,0,0,0-.1.29v.1q.09,9,.58,14.88,0,.19.1,1.15c.06.64.11,1.1.14,1.39s.1.72.19,1.3a5.66,5.66,0,0,0,.38,1.39,5.9,5.9,0,0,0,.62,1.06,2.93,2.93,0,0,0,.86.82,6.93,6.93,0,0,0,1.39.38,2.57,2.57,0,0,0,1.54-.38q.91-.48,1.54-.86a13.5,13.5,0,0,0,1.54-1.15q.91-.77,1.44-1.25l1.25-1.15,1-1Q349.28,116.87,350.72,118.31ZM308,127.62q11.23-5.85,17.18-22.27a8.62,8.62,0,0,1-.67-1,5.52,5.52,0,0,0-3.46-2.74,6.2,6.2,0,0,0-3.94.43,16.75,16.75,0,0,0-4,2.64,30.07,30.07,0,0,0-3.5,3.5,40.43,40.43,0,0,0-2.59,3.46,33.51,33.51,0,0,0-4.61,10.37q-1.92,7.11,2.11,6.72A9,9,0,0,0,308,127.62Z"/>
            <path class="cls-1"
                  d="M384,125.6a12.78,12.78,0,0,1,4.9-4.51q1.92-1.06,1.92,0a6.53,6.53,0,0,1-1.15,2.21q-2,3.07-3.31,4.85t-3.5,4.42a27.27,27.27,0,0,1-4.51,4.37,20.63,20.63,0,0,1-4.7,2.69q-4.13,1.63-6-.62t-1.39-6.67a27.71,27.71,0,0,1,.77-4q.67-2.74.86-4.13a16,16,0,0,0-.19-4.08,7.44,7.44,0,0,0-1.15-2.16,7,7,0,0,0-1.82-1.68,24.18,24.18,0,0,0-2.11-1.2q-1.06-.53-2.3-1.25a18.44,18.44,0,0,1-2.11-1.39v-.1l-3.26,2.88q-3.55,2.79-3.94.67t1.92-4.7a8.18,8.18,0,0,1,1.06-1.06q.38-.29,1.25-1.06a18.25,18.25,0,0,1-3.46-12.77,20.56,20.56,0,0,1,2.93-8.11,17.67,17.67,0,0,1,6.24-6.77q3.6-2.11,7.25,2,6.34,8.16-3,21a26.74,26.74,0,0,0,3.74,2.78q2.4,1.54,3.74,2.5a8.13,8.13,0,0,1,2.4,3.12,10.33,10.33,0,0,1,.86,5.23,33.61,33.61,0,0,1-1,4.94,19.9,19.9,0,0,0-.77,5.33q.38,6.34,5.47,2.21A18.69,18.69,0,0,0,384,125.6ZM361.57,99.68a10.3,10.3,0,0,0,.48-5,13.54,13.54,0,0,0-1.92-3.84q-.29,1.92-.29,2A16,16,0,0,0,361.57,99.68Z"/>
            <path class="cls-1"
                  d="M413.41,121.76q.77-1.44,3.17,1.54,2.78,3.55,2.11,5.38a.28.28,0,0,0-.1.19,27.81,27.81,0,0,1-13,11.76,11.29,11.29,0,0,1-7.92.48q-4-1.2-6.77-5.81a17.77,17.77,0,0,1-2.26-6,26.26,26.26,0,0,1-.43-6.43,37.44,37.44,0,0,1,1.1-6.72q.91-3.65,1.87-6.43t2.4-6q.58-1.34,2.88,1.63,2.88,3.55,2.21,5.57a53.19,53.19,0,0,0-4.9,22V133l.58.29a7.2,7.2,0,0,1,2,.14,14.23,14.23,0,0,0,2.11.24,16,16,0,0,0,8.26-3.94A28.39,28.39,0,0,0,413.41,121.76ZM395.17,98.15a1.59,1.59,0,0,1-1.54-.29A6.27,6.27,0,0,1,392,96.18a15.3,15.3,0,0,1-1.34-2.35,5.39,5.39,0,0,1-.58-2.21,1.63,1.63,0,0,1,.48-1.34q4.42-2.3,7.1-3.46t3.65-.29a8.67,8.67,0,0,1,3.07,3.7,4.11,4.11,0,0,1-.19,4.37q-.38.39-1.25-.19a.6.6,0,0,1-.29.14.62.62,0,0,0-.29.14q-1.15.48-3.07,1.34Q397.19,97.09,395.17,98.15Z"/>
        </g>
    </g>
</svg>
